<svg width="128" height="128" viewBox="0 0 128 128" fill="none" xmlns="http://www.w3.org/2000/svg">
<rect width="128" height="128" rx="64" fill="#AB9FF2"/>
<path d="M110.584 64.9142H99.142C99.142 41.7651 80.173 23 56.7724 23C33.6612 23 14.8253 41.3057 14.405 64.0583C13.9529 88.0358 33.0478 108 57.3585 108H63.0021C83.6101 108 104.218 93.2057 110.584 74.2971C112.109 69.8743 110.584 64.9142 110.584 64.9142ZM39.7319 65.5654C39.7319 69.2623 36.6828 72.2789 32.9449 72.2789C29.207 72.2789 26.1579 69.2623 26.1579 65.5654V56.8402C26.1579 53.1432 29.207 50.1267 32.9449 50.1267C36.6828 50.1267 39.7319 53.1432 39.7319 56.8402V65.5654ZM57.3585 65.5654C57.3585 69.2623 54.3094 72.2789 50.5715 72.2789C46.8336 72.2789 43.7845 69.2623 43.7845 65.5654V56.8402C43.7845 53.1432 46.8336 50.1267 50.5715 50.1267C54.3094 50.1267 57.3585 53.1432 57.3585 56.8402V65.5654Z" fill="white"/>
</svg>
