<svg fill="none" height="312" viewBox="0 0 398 312" width="398" xmlns="http://www.w3.org/2000/svg" xmlns:xlink="http://www.w3.org/1999/xlink"><linearGradient id="a" gradientUnits="userSpaceOnUse" x1="268.871" x2="49.2049" y1="-85.491" y2="335.258"><stop offset="0" stop-color="#00ffa3"/><stop offset="1" stop-color="#dc1fff"/></linearGradient><g fill="url(#a)"><path d="m64.6319 237.918c2.4335-2.432 5.7327-3.798 9.1727-3.798h317.3974c5.782 0 8.676 6.992 4.586 11.079l-62.717 62.667c-2.433 2.432-5.732 3.797-9.172 3.797h-317.39785c-5.78199 0-8.67644-6.991-4.58633-11.078z"/><path d="m64.6319 3.7973c2.4335-2.43147 5.7327-3.7973 9.1727-3.7973h317.3974c5.782 0 8.676 6.99174 4.586 11.0786l-62.717 62.6672c-2.433 2.4314-5.732 3.7973-9.172 3.7973h-317.39785c-5.78199 0-8.67644-6.9918-4.58633-11.0786z"/><path d="m333.071 120.112c-2.433-2.432-5.732-3.797-9.172-3.797h-317.39785c-5.781992 0-8.67644 6.991-4.58633 11.078l62.71708 62.667c2.4334 2.432 5.7327 3.798 9.1727 3.798h317.3974c5.782 0 8.676-6.992 4.586-11.079z"/></g></svg>