<svg enable-background="new 0 0 800 600" viewBox="0 0 800 600" xmlns="http://www.w3.org/2000/svg"><path d="m399.8 69.1c127.3 0 230.5 103.2 230.5 230.5 0 127.3-103.2 230.5-230.5 230.5-127.3 0-230.5-103.2-230.5-230.5 0-127.3 103.2-230.5 230.5-230.5z" fill="#0052ff"/><path d="m399.9 380.6c-44.8 0-81-36.3-81-81s36.3-81 81-81c40.1 0 73.4 29.2 79.8 67.5h81.6c-6.9-83.2-76.5-148.6-161.5-148.6-89.5 0-162.1 72.6-162.1 162.1s72.6 162.1 162.1 162.1c85 0 154.6-65.4 161.5-148.6h-81.7c-6.4 38.3-39.6 67.5-79.7 67.5z" fill="#fff"/></svg>