<svg fill="none" viewBox="0 0 27 26" xmlns="http://www.w3.org/2000/svg"><g stroke-linecap="round" stroke-linejoin="round" stroke-width=".269643"><path d="m25.2148.942841-10.1123 7.639879 1.8805-4.50244z" fill="#e17726" stroke="#e17726"/><g fill="#e27625" stroke="#e27625"><path d="m1.88965.942841 10.02225 7.711179-1.7904-4.57374z"/><path d="m21.5739 18.6572-2.6906 4.1968 5.7613 1.6197 1.6503-5.7249z"/><path d="m.819336 18.7488 1.640364 5.7249 5.75127-1.6197-2.68059-4.1968z"/><path d="m7.90089 11.5674-1.60035 2.4651 5.70126.2649-.19-6.26475z"/><path d="m19.2034 11.5674-3.9708-3.60607-.1301 6.33597 5.7013-.2648z"/><path d="m8.21094 22.854 3.45076-1.7011-2.97066-2.3633z"/><path d="m15.4426 21.1529 3.4408 1.7011-.4701-4.0644z"/></g><path d="m18.8834 22.8541-3.4408-1.7012.2801 2.2818-.03.9677z" fill="#d5bfb2" stroke="#d5bfb2"/><path d="m8.21094 22.8541 3.20066 1.5483-.02-.9677.2701-2.2818z" fill="#d5bfb2" stroke="#d5bfb2"/><path d="m11.4717 17.282-2.86062-.8557 2.02042-.9473z" fill="#233447" stroke="#233447"/><path d="m15.6326 17.282.8402-1.803 2.0304.9473z" fill="#233447" stroke="#233447"/><path d="m8.21111 22.854.50011-4.1968-3.1807.0916z" fill="#cc6228" stroke="#cc6228"/><path d="m18.3933 18.6572.4901 4.1968 2.6906-4.1052z" fill="#cc6228" stroke="#cc6228"/><path d="m20.8038 14.0325-5.7013.2649.5302 2.9846.8401-1.803 2.0305.9474z" fill="#cc6228" stroke="#cc6228"/><path d="m8.61117 16.4264 2.02043-.9474.8402 1.803.5301-2.9846-5.70124-.2649z" fill="#cc6228" stroke="#cc6228"/><path d="m6.30066 14.0325 2.39053 4.7571-.08002-2.3632z" fill="#e27525" stroke="#e27525"/><path d="m18.5035 16.4264-.09 2.3632 2.3905-4.7571z" fill="#e27525" stroke="#e27525"/><path d="m12.0019 14.2974-.5301 2.9846.6701 3.5246.1501-4.6451z" fill="#e27525" stroke="#e27525"/><path d="m15.1027 14.2974-.2801 1.8539.1401 4.6553.6701-3.5246z" fill="#e27525" stroke="#e27525"/><path d="m15.6327 17.282-.6702 3.5245.4801.3464 2.9707-2.3633.09-2.3633z" fill="#f5841f" stroke="#f5841f"/><path d="m8.61108 16.4263.08002 2.3633 2.9707 2.3633.4801-.3464-.6702-3.5245z" fill="#f5841f" stroke="#f5841f"/><path d="m15.6926 24.4024.03-.9678-.2601-.2241h-3.8208l-.2501.2241.02.9678-3.20066-1.5484 1.12024.9372 2.27052 1.5992h3.8908l2.2805-1.5992 1.1103-.9372z" fill="#c0ac9d" stroke="#c0ac9d"/><path d="m15.4426 21.1529-.4801-.3464h-2.8206l-.4801.3464-.2701 2.2818.2501-.2241h3.8208l.2601.2241z" fill="#161616" stroke="#161616"/><path d="m25.6449 9.08186.8502-4.21722-1.2803-3.921799-9.7722 7.385219 3.7609 3.23934 5.3111 1.5789 1.1703-1.3956-.5101-.3769.8102-.7538-.6202-.4889.8102-.6316z" fill="#763e1a" stroke="#763e1a"/><path d="m.609375 4.86464.860195 4.21722-.550127.41764.820177.6316-.62013.4889.81018.7538-.51012.3769 1.17026 1.3956 5.31118-1.5789 3.76081-3.23934-9.77214-7.385219z" fill="#763e1a" stroke="#763e1a"/><path d="m24.5147 13.1463-5.3112-1.5789 1.6004 2.4651-2.3906 4.7571 3.1607-.0408h4.7211z" fill="#f5841f" stroke="#f5841f"/><path d="m7.9009 11.5674-5.31117 1.5789-1.770394 5.6025h4.711044l3.16069.0408-2.39052-4.7571z" fill="#f5841f" stroke="#f5841f"/><path d="m15.1024 14.2974.3401-5.96934 1.5404-4.24777h-6.8616l1.5404 4.24777.3401 5.96934.13 1.8743.01 4.6348h2.8206l.01-4.6348z" fill="#f5841f" stroke="#f5841f"/></g></svg>