<svg fill="none" viewBox="0 0 22 18" xmlns="http://www.w3.org/2000/svg" xmlns:xlink="http://www.w3.org/1999/xlink"><linearGradient id="a" gradientUnits="userSpaceOnUse" x1="6.74995" x2="21.097" y1="8.68229" y2="12.7371"><stop offset="0" stop-color="#8697ff"/><stop offset="1" stop-color="#abb7ff"/></linearGradient><path d="m21.2652 10.2993c.8147-1.82604-3.2126-6.92764-7.0602-9.05308-2.4252-1.646554-4.95225-1.420343-5.46407-.697384-1.1232 1.586614 3.71927 2.931014 6.95787 4.499824-.6962.30342-1.3522.84781-1.738 1.54409-1.2073-1.3226-3.8573-2.46151-6.96684-1.54409-2.09542.61824-3.83686 2.07573-4.50991 4.27709-.16357-.07287-.34463-.11344-.53511-.11344-.7285 0-1.319057.59254-1.319057 1.32349 0 .7309.590557 1.3235 1.319057 1.3235.13496 0 .5572-.0909.5572-.0909l6.7466.0491c-2.69808 4.2947-4.8304 4.9225-4.8304 5.6666 0 .744 2.04026.5424 2.80629.265 3.66717-1.3276 7.60597-5.4654 8.28187-6.6565 2.8383.3553 5.2236.3973 5.7547-.7933z" fill="url(#a)"/></svg>